<svg width="512" height="512" viewBox="0 0 512 512" fill="none" xmlns="http://www.w3.org/2000/svg">
<path d="M512 165.4C512 293.3 441.95 400.7 336.7 435.5C316.66 443.438 294.87 447.96 272.01 447.96C207.11 447.96 146.81 411.45 116.31 353.49C62.1799 403.42 47.5999 460.49 47.3499 461.59C44.7199 472.6 34.8699 480 24.0199 480C22.1759 480 20.2929 479.781 18.4179 479.344C5.52788 476.246 -2.42212 463.264 0.667884 450.384C10.2659 410.884 91.1379 223.984 335.968 223.984C344.8 224 352 216.8 352 208C352 199.2 344.8 192 336 192C228.6 192 151 226.6 96.2899 267.6C96.4833 256.78 97.5319 245.76 99.8249 234.55C113.295 168.74 165.865 115.55 231.225 100.35C259.555 93.788 286.905 94.337 312.155 100.345C368.155 113.665 430.355 92.9326 461.455 39.1046C467.119 29.2766 481.475 29.5886 486.115 39.9328C502.7 76.76 512 121.9 512 165.4Z" fill="white"/>
</svg>
