<svg width="640" height="512" viewBox="0 0 640 512" fill="none" xmlns="http://www.w3.org/2000/svg">
<path d="M0 383.9L64 383.94C81.75 383.94 96 369.65 96 351.91V128.3H0V383.9ZM48 320.1C56.75 320.1 64 327.218 64 336.09C64 344.832 56.75 352.08 48 352.08C39.25 352.08 32 344.8 32 336.1C32 327.2 39.25 320.1 48 320.1ZM348.8 64C340.859 64 333.14 66.969 327.28 72.328L228.9 162.3C228.8 162.5 228.8 162.7 228.6 162.7C212 178.3 212.3 203.2 226.5 218.7C239.25 231.8 265.88 236.32 282.63 221.45C282.8 221.3 282.9 221.3 283 221.2L362.88 148.1C369.38 142.229 379.63 142.604 385.5 149.1C391.5 155.596 391 165.72 384.5 171.72L358.38 195.59L504 313.7C506.875 316.196 509.5 318.696 511.875 321.442V127.1C470.895 86.14 415.395 63.22 357.475 63.22L348.8 64ZM334.6 217.4L304.6 244.89C274.85 272 229.35 269.38 202.8 240.519C176 211.2 178.1 165.7 207.3 138.9L289.1 64H282.5C224.7 64 169.1 87.08 128.2 127.9L128 351.8L146.25 351.837L236.75 433.657C264.25 456.027 304.5 451.777 326.75 424.411L344.87 439.651C360.75 451.751 384.25 450.151 397.25 434.28L428.63 395.68L434.004 400.178C447.754 411.178 467.884 409.18 479.004 395.43L488.542 383.65C499.662 369.9 497.578 349.87 483.848 338.72L334.6 217.4ZM544 128.4V352C544 369.62 558.25 384.05 575.1 384.05L640 384V128.1L544 128.4ZM592 352C583.25 352 576 344.754 576 336.01C576 327.135 583.25 320.02 592 320.02C600.75 320.02 608 327.2 608 336.1C608 344.8 600.8 352 592 352Z" fill="white"/>
</svg>
