<svg width="512" height="512" viewBox="0 0 512 512" fill="none" xmlns="http://www.w3.org/2000/svg">
<g clip-path="url(#clip0_50_44)">
<path d="M191.1 224C191.1 206.28 176.76 191.96 159.1 191.96L144 192C108.66 192 80 220.66 80 256.08V303.87C80 339.3 108.7 368 144 368H160C177.66 368 192 353.64 192 335.94L191.1 224ZM256 0C112.9 0 4.583 119.1 0.0208 256L0 296C0 309.3 10.75 320 23.1 320C35.45 320 48 309.3 48 296V256C48 141.3 141.34 48.2 256 48.2C370.7 48.2 464 141.3 464 256V400C464 422.09 446.09 440 424 440H313.3C305 425.7 289.7 416 272 416H241.8C218.59 416 197.3 431.69 192.93 454.49C187 485.2 210.4 512 239.1 512H272C289.72 512 305.03 502.289 313.34 488H424C472.6 488 512 448.6 512 400V256C507.4 119.1 399.1 0 256 0ZM368 368C403.34 368 432 339.3 432 303.87V256.1C432 220.7 403.3 192 368 192H352C334.34 192 320 206.34 320 224.04V335.9C320 353.7 334.3 368 352 368H368Z" fill="white"/>
</g>
<defs>
<clipPath id="clip0_50_44">
<rect width="512" height="512" fill="white"/>
</clipPath>
</defs>
</svg>
