<svg width="66" height="44" viewBox="0 0 66 44" fill="none" xmlns="http://www.w3.org/2000/svg">
<path d="M63.3648 40.5606C62.4512 39.7486 61.1968 39.0429 60.1187 38.4739C58.1945 37.4583 56.6693 35.8773 54.7987 34.777C52.5819 33.473 50.2213 32.2339 48.5256 30.2556C45.2651 26.4518 40.901 23.4806 36.4688 21.2645C35.4481 20.7542 34.3697 20.3824 33.3515 19.8734C32.4054 19.4003 31.4629 18.594 30.4404 18.3019C29.5369 18.0437 27.9913 17.0121 27.3102 16.331C25.8352 14.856 23.5731 13.1819 21.5137 12.7243C20.0997 12.4101 17.6733 11.119 16.5802 10.1352C15.4947 9.15826 13.7589 8.82848 12.4839 8.09994C11.0249 7.2662 9.61506 6.4442 8.1816 5.60098C6.46088 4.58879 5.42726 2.99898 3.3125 2.99898" stroke="white" stroke-width="5" stroke-linecap="round"/>
</svg>
