<svg width="576" height="512" viewBox="0 0 576 512" fill="none" xmlns="http://www.w3.org/2000/svg">
<path d="M528 64H48C21.6 64 0 85.6 0 112V400C0 426.4 21.6 448 48 448H528C554.4 448 576 426.4 576 400V112C576 85.6 554.4 64 528 64ZM205.6 298.1C201.996 318.92 186.26 332.62 164.02 337.43V348C164.02 359.05 155.032 368 143.99 368C132.948 368 124.02 359.047 124.02 348V336.94C115.313 335.006 106.65 332.188 98.86 329.372L94.829 327.919C84.44 324.2 79 312.8 82.7 302.4C86.4 292 97.89 286.6 108.2 290.2L112.434 291.716C120.278 294.544 129.164 297.763 136.104 298.794C149.724 300.919 164.834 299.013 166.184 291.247C167.043 286.247 167.528 283.497 138.434 275.167L132.7 273.5C115.4 268.5 74.98 256.6 82.38 213.9C85.995 193 101.68 179.08 124.05 174.32V164C124.05 152.95 132.968 144 144.02 144C155.072 144 164.05 152.953 164.05 164V174.95C169.5 176.2 175.3 177.7 182.4 180.2C192.84 183.809 198.37 195.2 194.74 205.64C191.131 216.06 179.74 221.62 169.3 217.98C163.5 215.1 157.3 214 151.7 213.2C138.2 211 123.1 212.1 121.8 220.7C121 225.1 120.5 228.3 144 235.2L149.469 236.778C171.7 243.1 213.1 254.9 205.6 298.1ZM336 320L272 320C263.199 320 256 312.799 256 304.9C256 296.099 263.199 288.9 272 288.9L336 288C344.8 288 352 295.2 352 304C352 312.8 344.8 320 336 320ZM496 319.1L432 320C423.2 320 416 312.8 416 304C416 295.2 423.2 288 432 288L496 288C504.801 288 512 295.199 512 304C512 312.8 504.8 319.1 496 319.1ZM496 224H272C263.2 224 256 216.8 256 208C256 199.2 263.2 192 272 192H496C504.8 192 512 199.2 512 208C512 216.8 504.8 224 496 224Z" fill="white"/>
</svg>
