<svg width="22" height="21" viewBox="0 0 22 21" fill="none" xmlns="http://www.w3.org/2000/svg">
<path d="M13.05 19H19.05V18.175C18.6333 17.7917 18.1667 17.5 17.65 17.3C17.1333 17.1 16.6 17 16.05 17C15.5 17 14.9667 17.1 14.45 17.3C13.9333 17.5 13.4667 17.7917 13.05 18.175V19ZM16.05 16C16.4667 16 16.8208 15.8542 17.1125 15.5625C17.4042 15.2708 17.55 14.9167 17.55 14.5C17.55 14.0833 17.4042 13.7292 17.1125 13.4375C16.8208 13.1458 16.4667 13 16.05 13C15.6333 13 15.2792 13.1458 14.9875 13.4375C14.6958 13.7292 14.55 14.0833 14.55 14.5C14.55 14.9167 14.6958 15.2708 14.9875 15.5625C15.2792 15.8542 15.6333 16 16.05 16ZM10.1 6.5C9.13333 6.5 8.30833 6.84167 7.625 7.525C6.94167 8.20833 6.6 9.03333 6.6 10C6.6 10.8 6.825 11.5 7.275 12.1C7.725 12.7 8.31667 13.1167 9.05 13.35C9.05 12.9667 9.05417 12.6 9.0625 12.25C9.07083 11.9 9.14167 11.5833 9.275 11.3C9.04167 11.1667 8.87083 10.9833 8.7625 10.75C8.65417 10.5167 8.6 10.2667 8.6 10C8.6 9.58333 8.74583 9.22917 9.0375 8.9375C9.32917 8.64583 9.68333 8.5 10.1 8.5C10.35 8.5 10.5875 8.5625 10.8125 8.6875C11.0375 8.8125 11.225 8.98333 11.375 9.2C11.5583 9.11667 11.75 9.05833 11.95 9.025C12.15 8.99167 12.35 8.975 12.55 8.975H13.45C13.2333 8.25833 12.8208 7.66667 12.2125 7.2C11.6042 6.73333 10.9 6.5 10.1 6.5ZM7.3 20L6.9 16.8C6.68333 16.7167 6.47917 16.6167 6.2875 16.5C6.09583 16.3833 5.90833 16.2583 5.725 16.125L2.75 17.375L0 12.625L2.575 10.675C2.55833 10.5583 2.55 10.4458 2.55 10.3375V9.6625C2.55 9.55417 2.55833 9.44167 2.575 9.325L0 7.375L2.75 2.625L5.725 3.875C5.90833 3.74167 6.1 3.61667 6.3 3.5C6.5 3.38333 6.7 3.28333 6.9 3.2L7.3 0H12.8L13.2 3.2C13.4167 3.28333 13.6208 3.38333 13.8125 3.5C14.0042 3.61667 14.1917 3.74167 14.375 3.875L17.35 2.625L20.1 7.375L17.975 9H15.45C15.4333 8.91667 15.4167 8.82917 15.4 8.7375C15.3833 8.64583 15.3583 8.55833 15.325 8.475L17.475 6.85L16.5 5.15L14.025 6.2C13.6583 5.81667 13.2542 5.49583 12.8125 5.2375C12.3708 4.97917 11.8917 4.78333 11.375 4.65L11.05 2H9.075L8.725 4.65C8.20833 4.78333 7.72917 4.97917 7.2875 5.2375C6.84583 5.49583 6.44167 5.80833 6.075 6.175L3.6 5.15L2.625 6.85L4.775 8.45C4.69167 8.7 4.63333 8.95 4.6 9.2C4.56667 9.45 4.55 9.71667 4.55 10C4.55 10.2667 4.56667 10.525 4.6 10.775C4.63333 11.025 4.69167 11.275 4.775 11.525L2.625 13.15L3.6 14.85L6.075 13.8C6.475 14.2167 6.925 14.5667 7.425 14.85C7.925 15.1333 8.46667 15.3167 9.05 15.4V20H7.3ZM12.55 21C12.1333 21 11.7792 20.8542 11.4875 20.5625C11.1958 20.2708 11.05 19.9167 11.05 19.5V12.5C11.05 12.0833 11.1958 11.7292 11.4875 11.4375C11.7792 11.1458 12.1333 11 12.55 11H19.55C19.9667 11 20.3208 11.1458 20.6125 11.4375C20.9042 11.7292 21.05 12.0833 21.05 12.5V19.5C21.05 19.9167 20.9042 20.2708 20.6125 20.5625C20.3208 20.8542 19.9667 21 19.55 21H12.55Z" fill="black"/>
</svg>
