<svg width="46" height="35" viewBox="0 0 46 35" fill="none" xmlns="http://www.w3.org/2000/svg">
<path d="M3.42456 2.95332C4.84695 2.95332 6.69284 2.64655 8.0618 3.08213C9.65067 3.58768 11.7065 3.83803 13.034 4.92415C14.2485 5.91786 15.6851 7.6322 17.2075 8.06716C17.8017 8.23694 18.4915 8.79773 18.9593 9.21359C19.1765 9.40661 19.68 9.75295 19.9898 9.66444C20.5326 9.50934 18.8085 8.15971 18.6759 8.05428C16.9309 6.66622 10.9603 3.58461 12.9309 4.62788C13.8626 5.12113 14.8508 6.0325 15.5973 6.77904C16.5497 7.73146 17.6955 8.21097 18.7403 8.99461C19.8426 9.82133 21.3754 9.96654 22.5403 10.7078C23.4751 11.3027 24.6249 11.9254 25.6833 12.2278C27.336 12.7 28.7705 14.1833 30.2175 15.0101C31.3709 15.6693 32.48 16.5447 33.6826 17.2128C37.7348 19.4641 44.7453 22.4312 43.0601 28.3293C42.9298 28.7852 42.1612 29.035 41.8621 29.3341C41.4641 29.7321 40.998 30.4455 40.5225 30.7252C39.416 31.3761 37.9588 32.3998 36.5808 32.3998C32.2985 32.3998 28.1256 32.1679 23.8284 32.1679" stroke="white" stroke-width="5" stroke-linecap="round"/>
</svg>
