<svg width="44" height="38" viewBox="0 0 44 38" fill="none" xmlns="http://www.w3.org/2000/svg">
<path d="M2.54468 3.18671C3.68328 3.31322 4.39642 4.60045 5.32702 5.09313C6.07414 5.48866 7.07559 5.88399 7.69717 6.38125C9.25339 7.62623 11.7875 7.83669 13.2619 9.16359C14.9362 10.6705 16.8866 11.8352 18.4916 13.4402C20.175 15.1235 22.4616 16.0737 24.0563 17.8455C25.5765 19.5347 27.6351 20.7649 29.2088 22.4313C31.2652 24.6086 33.1062 26.9045 35.2372 28.9234C37.1833 30.7671 38.676 32.8259 40.57 34.7199C41.1311 35.281 41.4975 35.6973 41.4975 34.6684C41.4975 33.2171 41.4975 31.7658 41.4975 30.3146C41.4975 28.9137 40.4448 26.3729 38.7151 26.3729" stroke="white" stroke-width="5" stroke-linecap="round"/>
</svg>
