<svg width="640" height="512" viewBox="0 0 640 512" fill="none" xmlns="http://www.w3.org/2000/svg">
<g clip-path="url(#clip0_50_52)">
<path d="M240 320H560C586.4 320 608 298.4 608 272V80C608 53.6 586.4 32 560 32H448V160L400 128L352 160V32H240C213.6 32 192 53.6 192 80V272C192 298.4 213.6 320 240 320ZM608 384H128V64C128 28.8 99.2 0 64 0H31.1C14.4 0 0 14.4 0 32C0 49.6 14.4 64 31.1 64H48C56.84 64 64 71.16 64 80V415.1C64 432.7 78.4 447.1 96 447.1L162.92 447.099C161.1 453 160 458.4 160 464C160 490.5 181.5 512 208 512C234.5 512 256 490.5 256 464C256 458.359 254.87 453.03 253.083 448H450.983C449.196 453.027 448.055 458.36 448.055 464C448 490.5 469.5 512 496 512C522.51 512 544.01 490.51 544.01 464.9C544.01 459.259 542.89 453.93 541.103 448.9L607.983 448.901C625.6 448 640 433.6 640 415.1C640 398.4 625.6 384 608 384Z" fill="white"/>
</g>
<defs>
<clipPath id="clip0_50_52">
<rect width="640" height="512" fill="white"/>
</clipPath>
</defs>
</svg>
