<svg width="640" height="512" viewBox="0 0 640 512" fill="none" xmlns="http://www.w3.org/2000/svg">
<g clip-path="url(#clip0_50_60)">
<path d="M231.1 159.9C227.6 159.9 224 163.6 224 168V288H256V168C256 163.6 252.4 160 248 160L231.1 159.9ZM167.1 159.9C163.6 159.9 160 163.6 160 168V288H192V168C192 163.6 188.4 160 184 160L167.1 159.9ZM392 160C387.6 160 384 163.6 384 168V288H416V168C416 163.625 412.375 159.939 408 159.939L392 160ZM456 160C451.6 160 448 163.6 448 168V288H480V168C480 163.625 476.375 159.939 472 159.939L456 160ZM544 168C544 163.625 540.375 159.939 536 159.939L520 160C515.6 160 512 163.6 512 168V288H544V168ZM103.1 159.9C99.62 159.9 96 163.6 96 168V288H128V168C128 163.6 124.4 160 120 160L103.1 159.9ZM624 160H592.02C583.183 160 575.99 167.182 575.99 176.02L576 288C576 305.6 561.6 320 544 320H352V128C352 119.163 344.849 111.99 336.01 111.99H303.1C295.2 111.1 288 119.2 288 128V320H96C78.4 320 64 305.6 64 288L64.0065 176C64.01 167.2 56.85 160 48.02 160H16C7.163 160 0 167.2 0 176V288C0 341.02 42.98 384 96 384H288V448H175.1C149.5 448 128 469.5 128 495.1C128 504.8 135.2 512 143.1 512H495.1C504.9 512 512 504.9 512 496C512 469.5 490.5 448 464 448H352V384H544C597.02 384 640 341.02 640 288V176C640 167.2 632.8 160 624 160ZM607.1 127.9C621.2 127.9 632 116 632 101.4C632 86.62 608 48 608 48C608 48 584 86.62 584 101.38C584 116 594.7 127.9 607.1 127.9ZM31.1 127.9C45.25 127.9 56 116 56 101.4C56 86.62 32 48 32 48C32 48 8 86.62 8 101.4C8 116 18.75 127.9 31.1 127.9ZM319.1 79.94C332.35 79.94 343.1 68 343.1 53.37C344 38.62 320 0 320 0C320 0 296 38.62 296 53.38C296 67.1 306.7 79.94 319.1 79.94ZM112 128C125.25 128 136 116 136 101.38C136 86.62 112 48 112 48C112 48 88 86.62 88 101.4C88 115.1 98.75 128 112 128ZM176 128C189.25 128 200 116 200 101.38C200 86.62 176 48 176 48C176 48 152 86.62 152 101.4C152 115.1 162.8 128 176 128ZM240 128C253.25 128 264 116 264 101.38C264 86.62 240 48 240 48C240 48 216 86.62 216 101.4C216 115.1 226.8 128 240 128ZM400 128C413.25 128 424 116 424 101.38C424 86.62 400 48 400 48C400 48 376 86.62 376 101.38C376 115.1 386.8 128 400 128ZM464 128C477.25 128 488 116 488 101.38C488 86.62 464 48 464 48C464 48 440 86.62 440 101.38C440 115.1 450.8 128 464 128ZM528 128C541.25 128 552 116 552 101.38C552 86.62 528 48 528 48C528 48 504 86.62 504 101.38C504 115.1 514.8 128 528 128Z" fill="white"/>
</g>
<defs>
<clipPath id="clip0_50_60">
<rect width="640" height="512" fill="white"/>
</clipPath>
</defs>
</svg>
