<svg width="576" height="512" viewBox="0 0 576 512" fill="none" xmlns="http://www.w3.org/2000/svg">
<path d="M322.6 192C302.4 192 215.8 194 160 278V192C160 139 117 96 64 96C46.38 96 32 110.4 32 128C32 145.6 46.38 160 64 160C81.62 160 96 174.38 96 192V448C96 483.25 124.75 512 160 512H336C344.875 512 352 504.875 352 496.9V480C352 462.38 337.62 448 320 448H288L416 352V496C416 504.875 423.125 512 432 512H464C472.875 512 480 504.875 480 496V289.9C469.75 292.525 459.12 294.4 448 294.4C386.2 294.4 334.5 250.4 322.6 192ZM480 96H416L352 32V166.4C352 219.4 395 261.5 448 261.5C501 261.5 544 219.4 544 166.4V32L480 96ZM408 176C399.125 176 392 168.875 392 160C392 151.125 399.125 144 408 144C416.875 144 424 151.125 424 160C424 168.875 416.9 176 408 176ZM488 176C479.125 176 472 168.875 472 160C472 151.125 479.125 144 488 144C496.875 144 504 151.125 504 160C504 168.875 496.9 176 488 176Z" fill="white"/>
</svg>
