<svg width="512" height="512" viewBox="0 0 512 512" fill="none" xmlns="http://www.w3.org/2000/svg">
<path d="M0 144V432C0 457.6 22.41 480 48 480H64V96H48C22.41 96 0 118.4 0 144ZM464 96H448V480H464C489.59 480 512 457.59 512 432V144C512 118.4 489.6 96 464 96ZM384 48C384 22.41 361.6 0 336 0H176C150.4 0 128 22.41 128 48V96H96V480H416V96H384V48ZM176 48H336V96H176V48ZM352 312C352 316.4 348.4 320 344 320H288V376C288 380.375 284.375 384 280 384H232C227.6 384 224 380.4 224 376V320H168C163.6 320 160 316.4 160 312V264C160 259.6 163.6 256 168 256H224V200C224 195.6 227.6 192 232 192H280C284.4 192 288 195.6 288 200V256H344C348.4 256 352 259.6 352 264V312Z" fill="white"/>
</svg>
