<svg width="384" height="512" viewBox="0 0 384 512" fill="none" xmlns="http://www.w3.org/2000/svg">
<g clip-path="url(#clip0_50_56)">
<path d="M32 448C32 483.2 60.8 512 96 512H288C323.2 512 352 483.2 352 448V128H32V448ZM96 304C96 295.2 103.2 288 112 288H160V240C160 231.2 167.2 224 176 224H208C216.8 224 224 231.2 224 240V288H272C280.8 288 288 295.2 288 304V336C288 344.799 280.801 352 272 352H224V400C224 408.799 216.801 416 208 416H176C167.2 416 160 408.8 160 400V352H112C103.2 352 96 344.8 96 336V304ZM360 0H24C10.75 0 0 10.75 0 24V72C0 85.25 10.75 96 24 96H360C373.3 96 384 85.25 384 72V24C384 10.75 373.3 0 360 0Z" fill="white"/>
</g>
<defs>
<clipPath id="clip0_50_56">
<rect width="384" height="512" fill="white"/>
</clipPath>
</defs>
</svg>
