<svg width="576" height="512" viewBox="0 0 576 512" fill="none" xmlns="http://www.w3.org/2000/svg">
<g clip-path="url(#clip0_50_76)">
<path d="M255.1 96C255.1 96 393.9 96.375 399 96.75C399 96.5 399.125 96.25 399.125 96C399.125 43 357.025 0 304.025 0C251.025 0 207.1 43 207.1 96C207.1 98.125 207.6 100.125 207.725 102.25C223.7 98.25 239.6 96 255.1 96ZM559.1 224L529.57 224.003C520.82 204.003 507.97 186.273 492.22 171.523L511.1 96L479.1 96.0063C449.72 96.0063 423.72 109.536 406.1 130.286C399.4 129.3 391.9 128 383.1 128H255.1C178.6 128 114.2 183 99.3002 256L55.9802 256.004C41.2302 256.004 29.4802 242.494 32.4802 227.244C34.7402 215.7 45.3602 208 56.9902 208H57.99C61.24 208 63.99 205.25 63.99 202.001V182.001C63.9902 178.8 61.2402 176 57.9902 176C29.4902 176 4.10017 196.38 0.480172 224.63C-3.89483 258.76 22.7402 288.01 55.9902 288.01L95.9902 288C95.9902 340.25 121.35 386.13 159.98 415.3L159.1 480C159.1 497.6 173.5 512 191.1 512H223.1C240.7 512 255.1 497.6 255.1 480L255.103 448H383.103L383.099 480C383.099 497.6 397.499 512 415.099 512H447.099C464.699 512 479.099 497.6 479.099 480L479.099 415.27C490.849 406.395 501.419 395.88 510.419 384.01L559.1 384C568.8 384 576 376.8 576 368V240C576 231.2 568.8 224 559.1 224ZM431.1 288C422.35 288 415.1 280.75 415.1 272C415.1 263.25 423.2 256 431.1 256C439 256 447.1 263.25 447.1 272C447.1 280.75 440.7 288 431.1 288Z" fill="white"/>
</g>
<defs>
<clipPath id="clip0_50_76">
<rect width="576" height="512" fill="white"/>
</clipPath>
</defs>
</svg>
