<svg width="47" height="29" viewBox="0 0 47 29" fill="none" xmlns="http://www.w3.org/2000/svg">
<path d="M38.8441 25.7499C37.7332 24.639 36.8993 23.3399 35.9201 22.1431C35.3027 21.3885 34.4931 20.6382 33.7174 20.0564C33.4868 19.8834 31.6831 18.356 31.7852 18.356C32.3246 18.356 33.4852 19.5903 33.9235 19.8503C35.0421 20.5138 36.0678 21.2967 37.1696 21.9886C39.2472 23.2931 41.138 24.8616 43.3783 25.9817C44.4923 26.5387 42.9137 25.2969 42.6183 25.0156C41.2725 23.7339 39.7103 22.6744 38.3933 21.3574C37.2622 20.2263 35.7809 18.6169 34.3099 17.9696C32.0749 16.9862 29.963 15.8845 27.6632 15.0327C26.7424 14.6917 25.1458 14.4003 24.4172 13.7446C21.5265 11.1429 17.0162 10.833 13.7515 8.82394C12.817 8.24888 11.8127 8.03591 10.9048 7.32972C10.2871 6.84933 8.91298 6.15034 8.12241 6.02872C6.21638 5.73548 4.05491 4.23228 2.90552 2.79553" stroke="white" stroke-width="5" stroke-linecap="round"/>
</svg>
