<svg width="448" height="512" viewBox="0 0 448 512" fill="none" xmlns="http://www.w3.org/2000/svg">
<path d="M336 128C304 128 255.98 144.03 224 160.03C191.99 144.03 144.9 128.01 112.9 128C32 128 0.413357 210.5 0.00325679 288C-0.528043 387.97 63.9933 512 159.103 512C191.103 512 207.103 496 223.103 496C239.103 496 255.103 512 287.103 512C383.103 512 447.503 389.2 446.203 288C447.7 211.6 416 128 336 128ZM320 32V0H288C243.8 0 208 35.82 208 80V112H240C284.2 112 320 76.18 320 32Z" fill="white"/>
</svg>
