<svg width="640" height="512" viewBox="0 0 640 512" fill="none" xmlns="http://www.w3.org/2000/svg">
<path d="M176 288C220.1 288 256 252.1 256 208C256 163.9 220.1 128 176 128C131.9 128 96 163.9 96 208C96 252.1 131.9 288 176 288ZM544 128H304C295.2 128 288 135.2 288 144V320H64V48C64 39.16 56.84 32 48 32H16C7.163 32 0 39.16 0 48V464C0 472.8 7.163 480 16 480H48C56.84 480 64 472.8 64 464V416H576V464C576 472.837 583.163 480 592 480H624C632.837 480 640 472.837 640 464V224C640 170.1 597 128 544 128Z" fill="white"/>
</svg>
