<svg width="448" height="512" viewBox="0 0 448 512" fill="none" xmlns="http://www.w3.org/2000/svg">
<g clip-path="url(#clip0_50_10)">
<path d="M448 336V48C448 21.49 426.5 0 400 0H96C42.98 0 0 42.98 0 96V416C0 469.02 42.98 512 96 512H416C433.67 512 448 497.67 448 480.9C448 469.18 441.393 459.38 432 453.8V372.44C441.8 362.8 448 350.2 448 336ZM143.1 128H335.1C344.8 128 352 135.2 352 144C352 152.8 344.8 160 336 160H143.1C135.2 160 128 152.8 128 144C128 135.2 135.2 128 143.1 128ZM143.1 192H335.1C344.8 192 352 199.2 352 208C352 216.8 344.8 224 336 224H143.1C135.2 224 128 216.8 128 208C128 199.2 135.2 192 143.1 192ZM384 448H96C78.33 448 64 433.67 64 416C64 398.33 78.33 384 96 384H384V448Z" fill="white"/>
</g>
<defs>
<clipPath id="clip0_50_10">
<rect width="448" height="512" fill="white"/>
</clipPath>
</defs>
</svg>
