<svg width="512" height="512" viewBox="0 0 512 512" fill="none" xmlns="http://www.w3.org/2000/svg">
<path d="M111.1 304C124.5 316.5 144.8 316.5 157.2 304L208 253.3L265.38 310.68C271.6 316.9 279.8 320 288 320C296.2 320 304.38 316.875 310.62 310.625L464.02 157.225C476.51 144.735 476.51 124.475 464.021 111.975C451.521 99.475 431.261 99.475 418.771 111.973L288 242.8L230.6 185.4C218.1 172.9 197.85 172.9 185.35 185.4L111.1 258.8C99.5 271.2 99.5 291.5 111.1 304ZM480 416H64V63.1C64 46.33 49.67 32 32 32C14.33 32 0 46.33 0 63.1V448C0 465.6 14.4 480 32 480H480C497.7 480 512 465.7 512 448C512 430.3 497.7 416 480 416Z" fill="white"/>
</svg>
