<svg width="576" height="512" viewBox="0 0 576 512" fill="none" xmlns="http://www.w3.org/2000/svg">
<path d="M559 54.5C524.1 38.25 489.2 32 454.3 32C343.5 32 232.5 94.38 121.7 94.38C93.91 94.38 66.13 90.38 38.34 80.63C35.21 79.5 32.06 79 29.03 79C13.5 79 0 92.38 0 110.8V428.2C0 440.82 6.525 452.7 16.99 457.58C51.86 473.8 86.85 480 121.7 480C232.5 480 343.4 417.62 454.3 417.62C482.09 417.62 509.87 421.62 537.66 431.37C540.81 432.495 543.961 432.995 546.998 432.995C562.5 433 576 419.6 576 401.1V83.88C576 71.25 569.5 59.38 559 54.5ZM528 151.2C496.5 147.2 472 120.6 472 88C472 85.791 472.449 83.738 472.675 81.597C492 83.22 510.7 86.56 528 93.39V151.2ZM208 256C208 202.98 243.82 160 287.1 160C330.38 160 366.2 202.98 366.2 256C366.2 309.02 330.38 352 287.1 352C243.82 352 208 309 208 256ZM48 133.6C68.05 138.6 88.86 140.1 110.4 141.7C104.2 170.5 78.63 192 48 192V133.6ZM48 360.8C79.53 364.8 104 391.4 104 424C104 426.207 103.551 428.262 103.325 430.403C83.95 428.8 65.35 425.4 48 418.6V360.8ZM528 378.4C507.95 373.38 487.15 371 465.56 370.261C471.8 341.5 497.4 320 528 320V378.4Z" fill="white"/>
</svg>
