<svg width="640" height="512" viewBox="0 0 640 512" fill="none" xmlns="http://www.w3.org/2000/svg">
<g clip-path="url(#clip0_50_22)">
<path d="M639.4 433.6C631.026 413.23 607.65 403.48 587.28 411.98L565.16 421.229L526.41 320.129C574.28 286.029 591.28 219.929 560.91 167.429L474.29 16.9289C466.291 3.05888 450.19 -2.82112 435.19 3.30888L320.99 50.6789L205.8 2.41488C190.8 -3.71012 173.8 2.16488 165.8 16.0399L79.15 166.5C48.9 219 65.78 284.3 113.6 319.2L74.85 421.1L52.78 411.9C32.41 403.401 9.16004 413.15 0.660038 433.52C-1.08996 437.644 0.785038 442.269 4.91004 444.02L167.31 511.39C170.41 513.14 175.934 511.265 177.68 507.141C186.054 486.771 176.43 463.271 156.06 454.771L133.94 445.647L173.31 342.047C177.81 342.547 182.184 343.297 186.43 343.297C238.18 343.297 285.8 311.197 299.83 258.057L320.08 182.697L340.33 258.057C353.43 310.297 401.95 343.297 453.73 343.297C457.98 343.297 462.354 342.547 466.85 342.047L506.1 445.647L483.98 454.771C463.61 463.27 453.86 485.871 462.36 507.141C464.11 511.265 468.86 513.14 472.86 511.39L635.26 444.02C639.1 442.2 641.1 437.7 639.4 433.6ZM275.9 162.1L163.8 115.6L200.3 52.2299L294.8 91.3999L275.9 162.1ZM364.1 162.1L345.23 91.3599L439.72 52.2399L476.22 115.61L364.1 162.1Z" fill="white"/>
</g>
<defs>
<clipPath id="clip0_50_22">
<rect width="640" height="512" fill="white"/>
</clipPath>
</defs>
</svg>
