<svg width="576" height="512" viewBox="0 0 576 512" fill="none" xmlns="http://www.w3.org/2000/svg">
<path d="M512 32H64C28.65 32 0 60.66 0 96V128H576V96C576 60.66 547.3 32 512 32ZM0 416C0 451.34 28.65 480 64 480H512C547.35 480 576 451.34 576 416V224H0V416ZM191.1 360C191.1 355.578 194.682 352 199.1 352H342.2C346.618 352 350.2 355.578 350.2 360L352 376C352 380.418 348.418 384 344 384H200C195.6 384 192 380.4 192 376L191.1 360ZM63.1 360C63.1 355.578 66.682 352 71.1 352H151.1C155.518 352 159.1 355.578 159.1 360L160 376C160 380.4 156.4 384 152 384H72C67.58 384 64 380.4 64 376L63.1 360Z" fill="white"/>
</svg>
