<svg width="576" height="512" viewBox="0 0 576 512" fill="none" xmlns="http://www.w3.org/2000/svg">
<g clip-path="url(#clip0_50_28)">
<path d="M576 136C576 158.09 558.09 176 536 176C535.752 176 535.545 175.873 535.297 175.87L484.777 453.77C482 468.9 468.8 480 453.3 480H122.7C107.24 480 93.9801 468.94 91.2201 453.73L40.7101 175.9C40.4601 175.9 40.2501 176 39.1001 176C17.0101 176 -0.899902 158.09 -0.899902 136C-0.899902 113.91 17.9101 96 39.1001 96C60.2901 96 79.1001 113.91 79.1001 136C79.1001 144.998 75.5791 152.89 70.5631 159.57L160.193 231.27C176.103 244 199.693 238.814 208.803 220.59L266.403 105.39C255.1 98.34 247.1 86.34 247.1 72C247.1 49.91 265.9 32 288 32C310.1 32 327.1 49.91 327.1 72C327.1 86.34 319.137 98.34 307.8 105.4L365.4 220.6C374.511 238.82 398.11 244 414.01 231.28L503.64 159.58C499.5 152.9 496 144.1 496 136C496 113.9 513.9 96 536 96C558.1 96 576 113.9 576 136Z" fill="white"/>
</g>
<defs>
<clipPath id="clip0_50_28">
<rect width="576" height="512" fill="white"/>
</clipPath>
</defs>
</svg>
