<svg width="576" height="512" viewBox="0 0 576 512" fill="none" xmlns="http://www.w3.org/2000/svg">
<g clip-path="url(#clip0_50_26)">
<path d="M297.1 224L448 277.5V496C448 504.9 440.9 512 432 512H368C359.125 512 352 504.875 352 496.9V385.8H192V496.9C192 504.9 184.9 512 176 512H112C103.1 512 96 504.9 96 496V282.1C58.88 268.9 32 233.6 32 192C32 174.38 46.38 160.9 64 160.9C81.62 160.9 96 175.27 96 192C96 208.73 110.38 223.1 128 223.1H297.1V224ZM544 112V143.1C544 178.47 515.38 206.2 480 206.2L448 206.2V241.82L320 196.07V47.9999C320 33.7499 337.25 26.6299 347.25 36.7499L374.63 63.9999L428.26 63.9991C439.14 63.9991 452.01 71.8741 456.88 81.7491L464 95.9999L528 96.0005C536.9 95.9999 544 103.1 544 112ZM432 112C432 103.125 424.875 96.8999 416 96.8999C407.125 96.8999 400 104.024 400 112C400 119.976 407.125 127.1 416 127.1C424.875 127.1 432 120.9 432 112Z" fill="white"/>
</g>
<defs>
<clipPath id="clip0_50_26">
<rect width="576" height="512" fill="white"/>
</clipPath>
</defs>
</svg>
