<svg width="512" height="512" viewBox="0 0 512 512" fill="none" xmlns="http://www.w3.org/2000/svg">
<g clip-path="url(#clip0_50_34)">
<path d="M32 480C32 497.7 46.31 512 64 512H224V288H32V480ZM480 128H437.86C449.82 105.08 452.87 77.45 437.82 46.6C423.4 16.99 392.6 -0.0155893 359.5 1.07235e-05C317.7 0.0156107 290.7 21.32 256 68.3C221.3 21.32 194.3 0.0156107 152.5 1.07235e-05C119.4 -0.0155893 88.62 16.99 74.18 46.6C59.13 77.45 62.18 105.1 74.15 128H32C14.33 128 0 142.33 0 160V224C0 241.6 14.4 255.97 31.1 255.97H479.1C496.7 255.97 511.1 241.6 511.1 224V160C512 142.3 497.7 128 480 128ZM153.9 128C131.81 128 113.9 110.09 113.9 88C113.9 65.91 131.81 48 153.9 48C173.8 48 188.5 51.3 240 128H153.9ZM358.1 128H272C323.5 51.3 338.19 48 358.09 48C380.18 48 398.09 65.91 398.09 88C398.09 110.09 380.2 128 358.1 128ZM288 512H448C465.69 512 480 497.7 480 480L480 288H288.9L288 512Z" fill="white"/>
</g>
<defs>
<clipPath id="clip0_50_34">
<rect width="512" height="512" fill="white"/>
</clipPath>
</defs>
</svg>
