<svg width="384" height="512" viewBox="0 0 384 512" fill="none" xmlns="http://www.w3.org/2000/svg">
<path d="M112.1 454.3C112.1 460.597 113.916 466.74 117.384 471.99L134.524 497.68C139.774 505.555 151.694 511.96 161.164 511.96H222.834C232.272 511.96 244.194 505.559 249.444 497.68L266.524 472C269.462 467.562 271.872 459.63 271.872 454.3L272 415.1H112L112.1 454.3ZM191.4 0.0131644C89.44 0.325664 16 82.97 16 175.1C16 219.48 32.44 259.94 59.56 290.9C76.09 309.74 101.9 349.13 111.78 382.35C111.811 382.6 111.874 382.867 111.905 383.132H272.105C272.136 382.867 272.199 382.616 272.23 382.35C282.105 349.13 307.92 309.74 324.45 290.9C351.6 260.8 368 220.4 368 175.1C368 78.61 288.9 -0.283736 191.4 0.0131644ZM192 96.01C147.87 96.01 112 131.9 112 175.11C112 184.8 104.8 192 96 192C87.2 192 80 184.8 80 176C80 114.24 130.25 64.9 192 64.9C200.844 64.9 208 72.059 208 80.9C208 89.741 200.8 96.01 192 96.01Z" fill="white"/>
</svg>
