<svg width="384" height="512" viewBox="0 0 384 512" fill="none" xmlns="http://www.w3.org/2000/svg">
<path d="M192 352C245.03 352 288 309.03 288 256H208C199.2 256 192 248.8 192 240C192 231.2 199.2 224 208 224H288V192H208C199.2 192 192 184.8 192 176C192 167.2 199.2 160 208 160H288V127.1H208C199.164 127.1 192 119.936 192 111.1C192 102.264 199.164 95.1 208 95.1L288 96C288 42.97 245.03 0 192 0C138.97 0 96 42.97 96 96V256C96 309 138.1 352 192 352ZM344 192C330.7 192 320 202.7 320 215.1V256C320 329.33 258.03 388.4 183.7 383.7C117.62 379.531 64 317.11 64 250.9V215.1C64 202.7 53.25 192 40 192C26.75 192 16 202.7 16 215.1V247.25C16 336.91 79.97 416.85 168 428.95V464H128C109.81 464 95.16 479.18 96.04 497.57C96.43 505.8 103.8 512 112 512H272C280.222 512 287.57 505.784 287.96 497.57C288.8 479.2 274.2 464 256 464H216V430.23C301.7 418.5 368 344.9 368 256V215.1C368 202.7 357.3 192 344 192Z" fill="white"/>
</svg>
