<svg width="512" height="512" viewBox="0 0 512 512" fill="none" xmlns="http://www.w3.org/2000/svg">
<g clip-path="url(#clip0_50_64)">
<path d="M160 320H172V336C172 344.875 179.125 352 188 352H228C236.875 352 244 344.875 244 336V320H256C273.62 320 288 305.62 288 288V64C288 46.38 273.62 32 256 32V16C256 7.125 248.9 0 240 0H176C167.1 0 160 7.125 160 16V32C142.4 32 128 46.38 128 64V288C128 305.6 142.4 320 160 320ZM464 448H462.75C493.2 414 512 369.2 512 320C512 214.1 425.87 128 320 128V192C390.63 192 448 249.38 448 320C448 390.62 390.62 448 320 448H48C21.5 448 0 469.5 0 496C0 504.9 7.125 512 16 512H496C504.875 512 512 504.875 512 496C512 469.5 490.5 448 464 448ZM104 416H312C316.375 416 320 412.375 320 408V392C320 387.625 316.375 384 312 384H104C99.63 384 96 387.6 96 392V408C96 412.4 99.63 416 104 416Z" fill="white"/>
</g>
<defs>
<clipPath id="clip0_50_64">
<rect width="512" height="512" fill="white"/>
</clipPath>
</defs>
</svg>
