<svg width="512" height="512" viewBox="0 0 512 512" fill="none" xmlns="http://www.w3.org/2000/svg">
<g clip-path="url(#clip0_50_66)">
<path d="M500.3 443.7L380.6 324C407.82 283.59 421.25 233.1 414.06 179.3C401.83 87.75 326.78 13.3 235.16 1.70001C98.96 -15.54 -15.54 98.98 1.75998 235.1C13.36 326.74 87.83 401.8 179.36 414C233.17 421.191 283.66 407.765 324.06 380.54L443.76 500.24C459.38 515.86 484.71 515.86 500.33 500.24C515.9 484.7 515.9 459.3 500.3 443.7ZM273.7 253.8C269.8 276.4 252.6 291.3 228 296.1V304C228 315.03 219.047 324 208 324C196.953 324 188 315 188 304V295.2C178.2 293.2 168.4 289.9 159.6 286.8L154.8 285.1C144.4 281.4 138.9 269.9 142.6 259.5C146.2 249.1 157.6 243.7 168.1 247.3L173.162 249.112C181.724 252.206 191.412 255.674 199.072 256.831C215.302 259.331 232.542 256.8 234.242 247.019C235.461 239.925 234.648 236.399 202.442 227.179L196.2 225.4C177.8 219.1 134.5 207.3 142.3 162.2C146.2 139.6 163.5 124.8 188 120V112C188 100.97 196.953 92 208 92C219.047 92 228 100.1 228 112V120.695C234.252 121.968 241.06 123.765 249.47 126.687C259.89 130.312 265.42 141.717 261.8 152.157C258.2 162.6 246.8 168.1 236.3 164.5C228.2 161.7 221.8 159.9 216.8 159.2C200.69 156.606 183.42 159.231 181.72 169.012C180.72 174.824 180.001 179.012 207.42 187.042L213.42 188.761C238.9 196 281.5 208.2 273.7 253.8Z" fill="white"/>
</g>
<defs>
<clipPath id="clip0_50_66">
<rect width="512" height="512" fill="white"/>
</clipPath>
</defs>
</svg>
