<svg width="512" height="512" viewBox="0 0 512 512" fill="none" xmlns="http://www.w3.org/2000/svg">
<g clip-path="url(#clip0_50_70)">
<path d="M511.1 367.1C511.1 411.28 468.12 447.1 416 447.1C363.88 447.1 320.9 411.28 320.9 368C320.9 323.82 363.88 288.9 416 288.9C427.28 288.9 437.95 290.82 448.01 293.798V148.1L192 224L191.998 432.1C191.1 476.2 149 512 95.1 512C41.2 512 0 476.2 0 432C0 387.82 42.98 352.9 95.1 352.9C106.38 352.9 117.05 354.82 127.1 357.798V126.5C127.1 113.53 137.16 99.87 149.51 95.98L468.61 1.49C472.1 0.6615 477.3 0 480 0C497.66 0 511.97 14.34 512 31.99L511.1 367.1Z" fill="white"/>
</g>
<defs>
<clipPath id="clip0_50_70">
<rect width="512" height="512" fill="white"/>
</clipPath>
</defs>
</svg>
