<svg width="512" height="512" viewBox="0 0 512 512" fill="none" xmlns="http://www.w3.org/2000/svg">
<g clip-path="url(#clip0_50_72)">
<path d="M416 128V32C416 14.34 401.66 0 384 0H32C14.34 0 0 14.34 0 32V128C0 145.66 14.34 160 32 160H384C401.7 160 416 145.7 416 128ZM448 64V192C448 209.66 433.66 224 416 224H256C220.7 224 192 252.7 192 288V320C174.34 320 160 334.34 160 352V480C160 497.66 174.34 512 192 512H256C273.66 512 288 497.66 288 480V352C288 334.34 273.66 320 256 320V288H416C469.03 288 512 245.03 512 192V128C512 92.66 483.3 64 448 64Z" fill="white"/>
</g>
<defs>
<clipPath id="clip0_50_72">
<rect width="512" height="512" fill="white"/>
</clipPath>
</defs>
</svg>
