<svg width="512" height="512" viewBox="0 0 512 512" fill="none" xmlns="http://www.w3.org/2000/svg">
<path d="M256 224C176.63 224 64.8999 346.7 64.8999 424.2C64.0199 459.1 90.7599 480 135.8 480C184.6 480 216.9 454.9 256 454.9C295.5 454.9 327.9 480 376.2 480C420.3 480 447.94 459.12 447.94 424.25C447.1 346.8 335.4 224 256 224ZM108.8 211.4C98.4299 176.78 66.2999 154.28 37.1799 161.28C8.0599 168.28 -7.10409 202 3.26991 236.6C13.6399 271.3 45.7699 293.8 74.8899 286.8C104.01 279.8 119.1 246 108.8 211.4ZM193.5 190.6C224.37 182.475 239.87 141.5 228 97.23C216.13 52.96 181.5 26.13 150.51 33.36C119.64 41.485 104.14 82.46 116.01 126.73C127.9 170.1 162.5 198.8 193.5 190.6ZM474.9 161.3C445.78 155.2 413.65 176.8 403.28 211.42C392.91 246.05 408.03 279.79 437.15 286.79C466.27 292.89 498.27 271.29 508.77 236.67C519.1 202 503.1 168.3 474.9 161.3ZM318.5 190.6C348.6 198.725 384.12 170.1 395.99 126.73C407.86 83.36 392.365 41.48 361.49 33.36C331.39 25.235 295.87 53.86 284 97.23C272.1 140.6 287.6 182.5 318.5 190.6Z" fill="white"/>
</svg>
