<svg width="640" height="512" viewBox="0 0 640 512" fill="none" xmlns="http://www.w3.org/2000/svg">
<g clip-path="url(#clip0_50_80)">
<path d="M85 250.5C-2 424.7 0.9 416.4 0.9 432C0.00350001 476.1 57.25 512 128 512C198.75 512 256 476.12 256 432.9C256 416.78 257.375 424.148 170.88 251.4C153.3 215.3 102.8 215.1 85 250.5ZM55.96 416L127.94 272.9L200.09 416H55.96ZM554.9 122.5C537.28 87.25 486.82 87.13 469.07 122.5C382.07 296.7 384.03 288.4 384.03 304C384.03 348.12 441.28 383.1 512.03 383.1C582.78 383.1 639.13 347.23 639.13 304C639.1 287.9 641.4 295.3 554.9 122.5ZM439.1 288L511.14 144.9L583.22 288H439.1ZM495.1 448H352V153.3C372.83 144.183 388.72 126.37 395.78 104.53L522.08 62.42C538.85 56.826 547.91 38.7 542.31 21.94C536.732 5.20999 518.69 -3.92001 501.83 1.70999L388.53 39.47C374.59 15.98 349.24 0.059987 319.95 0.059987C275.77 0.059987 240.85 35.88 240.85 80.06C240.85 83.021 241.409 85.831 241.721 88.708L117.9 129.7C101.1 135.3 92.05 153.4 97.64 170.1C102.109 183.51 114.59 191.98 128 191.98C131.344 191.98 134.768 191.461 138.13 190.336L273.8 145.1C278.2 148.3 282.1 151.1 288 153.3V496C288 504.8 295.2 512 304 512H527.1C535.938 512 543.1 504.836 543.1 496.9C543.1 469.5 522.5 448 495.1 448Z" fill="white"/>
</g>
<defs>
<clipPath id="clip0_50_80">
<rect width="640" height="512" fill="white"/>
</clipPath>
</defs>
</svg>
