<svg width="512" height="512" viewBox="0 0 512 512" fill="none" xmlns="http://www.w3.org/2000/svg">
<g clip-path="url(#clip0_50_84)">
<path d="M335.7 278.3L267.82 346.18L394.22 472.58C425.46 503.82 476.12 503.82 507.32 472.58C513.568 466.332 513.568 456.2 507.32 449.95L335.7 278.3ZM507.3 62.06C513.548 55.812 513.548 45.68 507.3 39.43C476.06 8.19 425.4 8.19 394.2 39.43L245.5 188.1L214.33 156.93C232.34 115.9 224.79 66.38 191.2 32.83C169.3 10.94 140.7 0 111.1 0C81.5 0 54.67 10.94 32.8 32.8C-10.94 76.54 -10.94 147.5 32.8 191.2C54.67 213.1 83.34 224 111.1 224C120.973 224 130.74 222.221 140.33 219.625L177.6 256L141.2 292.4C131.6 289.8 121.9 288 111.1 288C82.44 288 53.77 298.93 31.9 320.8C-11.84 364.54 -11.84 435.5 31.9 479.2C54.67 501.1 83.34 512 111.1 512C138.86 512 168.43 501.07 190.3 479.2C223.89 445.61 231.43 396.08 213.43 355.1L507.3 62.06ZM112 160C85.49 160 64 138.5 64 112C64 85.49 85.46 64 112 64C138.5 64 160 85.46 160 112C160 138.5 138.5 160 112 160ZM112 448C85.49 448 64 426.5 64 400C64 373.5 85.46 352 112 352C138.5 352 160 373.5 160 400C160 426.5 138.5 448 112 448Z" fill="white"/>
</g>
<defs>
<clipPath id="clip0_50_84">
<rect width="512" height="512" fill="white"/>
</clipPath>
</defs>
</svg>
