<svg width="512" height="512" viewBox="0 0 512 512" fill="none" xmlns="http://www.w3.org/2000/svg">
<g clip-path="url(#clip0_50_92)">
<path d="M416 287.1C443.99 287.1 469.68 296.354 490.76 311.61C504.79 281.79 511.82 249.48 511.82 217.18C511.82 114.08 432.45 -0.920013 295.32 -0.920013C235.38 -0.920013 174.92 22.79 129.82 68.03L75.16 122.83C73.61 125.3 72.58 126.1 71.14 128.5L301.84 359.2C322.8 317.2 365.8 287.1 416 287.1ZM290.3 392.1L51.7 153.5C38.74 176.2 32.3 199.4 32.3 221.9C32.3 252.43 44.01 281.84 66.59 304.48L103.19 341.18L10.81 422.5C3.633 428.755 0 437.52 0 446.31C0 454.337 3.032 462.38 9.164 468.55L43.214 502.75C49.359 508.91 57.374 511.955 65.364 511.955C74.113 511.955 82.834 508.306 89.064 501.095L170.094 408.245L206.044 444.285C229.664 467.965 260.454 479.515 291.414 479.515C295.946 479.515 300.619 479.247 305.134 478.755C294.574 460.145 288.014 438.865 288.014 415.945C288 408.1 288.1 400.5 290.3 392.1ZM415.1 320C362.11 320 319.11 362.1 319.11 415.1C319.11 467.2 362.1 511.09 415.1 511.09C467.2 511.09 511.09 468.99 511.09 415.1C511.1 363 468.1 320 415.1 320Z" fill="white"/>
</g>
<defs>
<clipPath id="clip0_50_92">
<rect width="512" height="512" fill="white"/>
</clipPath>
</defs>
</svg>
