<svg width="576" height="512" viewBox="0 0 576 512" fill="none" xmlns="http://www.w3.org/2000/svg">
<g clip-path="url(#clip0_50_94)">
<path d="M192.4 320C255.78 320 246.49 280.33 287.73 279.98C330.27 280.347 319.54 320 383.64 320C422.91 320 439.36 301.59 445.85 295.17L305.45 179.07C308.742 177.381 337.11 160.87 380.7 160.87C393.27 160.87 405.88 162.267 418.23 165.08L456.82 173.924C459.232 174.483 461.644 174.751 464.02 174.751C479.93 174.751 495.98 161.941 495.98 142.711C495.98 128.131 485.95 114.941 471.14 111.551L432.55 102.707C415.49 98.8032 398.09 96.8702 380.74 96.8702C260.64 96.8702 203.34 182.74 202.64 184.89L179.1 213.3C158.1 241.3 147.4 273.8 145 307.7C157.5 315.4 174.3 320 192.4 320ZM576 397C576 381.86 565.18 368.41 549.75 365.58C501.23 356.692 504.25 336.1 480.15 336.1C455.13 336.1 448.96 367.89 383.97 367.89C335.38 367.89 311.25 345.83 310.59 345.27C304.449 339.113 296.33 336.082 288.17 336.082C263.42 336.082 256.58 367.892 191.97 367.892C143.38 367.892 119.28 345.862 118.56 345.302C112.435 339.145 104.26 336.057 96.1002 336.057C88.0282 336.057 79.9802 339.083 73.7202 344.958C44.7102 371.208 -0.0297852 357.498 -0.0297852 397.038C-0.0297852 413.118 12.7402 429.108 31.6802 429.108C41.4502 429.108 71.3302 421.768 95.9402 407.268C115.5 418.8 147.4 431.1 192 431.1C236.6 431.1 268.5 417.98 288 406.44C307.53 417.97 339.47 431.03 384 431.03C428.59 431.03 460.56 417.94 480.06 406.41C504.77 420.98 534.8 428.24 544.3 428.24C563.2 429.1 576 413.3 576 397ZM95.1002 224C130.45 224 159.1 195.35 159.1 160C159.1 124.65 130.45 96 95.1002 96C59.7502 96 31.1002 124.65 31.1002 160C31.1002 195.3 60.6502 224 95.1002 224Z" fill="white"/>
</g>
<defs>
<clipPath id="clip0_50_94">
<rect width="576" height="512" fill="white"/>
</clipPath>
</defs>
</svg>
