<svg width="640" height="512" viewBox="0 0 640 512" fill="none" xmlns="http://www.w3.org/2000/svg">
<path d="M160 243.1L147.2 272H172.89L160 243.1ZM576 63.1L336 64V448H576C611.35 448 640 419.35 640 384V128C640 92.65 611.3 63.1 576 63.1ZM552 232H550.537C542.455 259.78 529.477 281.29 515.477 298.34C523.331 303.283 528.807 305.664 528.937 305.715C541.157 310.715 547.127 324.655 542.217 336.905C538.4 346.3 529.5 352 519.1 352C516.194 352 513.225 351.469 510.35 350.328C509.35 349.937 496.02 344.377 479.09 332.138C462.4 344.178 449.19 349.818 447.91 350.328C445.9 351.5 442.9 352 440 352C430.438 352 421.41 346.234 417.66 336.8C412.816 324.5 418.848 310.61 431.1 305.72C431.848 305.415 437.137 302.997 444.35 298.531C440.975 294.408 437.608 290.207 434.412 285.501C426.943 274.531 429.818 259.611 440.756 252.161C451.786 244.708 466.666 247.567 474.096 258.536C475.979 261.306 477.977 263.722 479.95 266.218C487.3 256.8 494.1 245.5 499.5 232H408C394.8 232 384 221.3 384 208C384 194.7 394.8 184 408 184H456C456 170.75 466.75 160 480 160C493.25 160 504 170.8 504 184H552C565.25 184 576 194.75 576 208C576 221.25 565.3 232 552 232ZM0 127.1V383.1C0 418.45 28.65 447.1 64 447.1L304 448V64L64 63.1C28.65 63.1 0 92.65 0 127.1ZM74.06 318.3L138.06 174.3C145.748 156.96 174.25 156.96 181.94 174.3L245.94 318.3C251.315 330.41 245.877 344.6 233.75 349.99C230.6 351.3 227.3 352 224 352C214.812 352 206.03 346.688 202.06 337.75L193.1 319.6C193.3 319.7 192.7 320 192 320H128C127.293 320 126.695 319.658 126.004 319.598L117.938 337.748C112.532 349.888 98.248 355.298 86.248 349.938C74.13 344.5 68.69 330.4 74.06 318.3Z" fill="white"/>
</svg>
