<svg width="67" height="52" viewBox="0 0 67 52" fill="none" xmlns="http://www.w3.org/2000/svg">
<path d="M4.15318 8.08574C4.24545 9.00846 5.25391 9.87706 5.7891 10.5461C6.90775 11.9444 7.72197 13.5398 8.88059 14.8999C9.98125 16.192 11.5348 16.8947 12.8867 17.927C14.0852 18.8423 15.2524 19.7446 16.5063 20.5805C17.2143 21.0526 17.5122 21.1239 16.8798 20.2456C14.9763 17.6018 12.8047 15.0188 10.5552 12.6715C8.51605 10.5437 6.52844 8.53801 4.77148 6.15356C4.59226 5.91033 2.82268 2.95901 2.53015 2.95901C2.51799 2.95901 3.4383 4.70816 3.50912 4.83967C4.12537 5.98414 5.01217 7.08943 5.77622 8.13727C7.07454 9.91782 8.48872 11.659 9.94973 13.3026C10.9027 14.3747 11.3098 13.7182 10.6196 12.4911C9.2271 10.0156 6.84082 8.21563 5.49283 5.66407C5.39893 5.48632 4.39407 3.31884 5.19656 4.38883C6.12394 5.62534 6.99927 6.58732 8.09484 7.62202C8.7994 8.28744 9.83901 8.77865 10.6453 9.36098C12.3389 10.5841 13.5745 12.013 15.0765 13.4314C17.754 15.9602 20.3727 18.7422 23.1659 21.1215C24.5973 22.3409 26.0668 23.1956 27.5712 24.2646C29.4614 25.6076 31.8181 27.2189 34.0376 27.8971C36.4839 28.6445 38.9348 29.6186 41.1996 30.8082C46.3259 33.5008 51.9253 35.4616 56.4123 39.2583C56.6728 39.4787 56.8797 39.8277 57.2496 39.8508C57.4244 39.8618 56.9057 39.7838 56.7343 39.7478C53.0668 38.9771 49.4469 37.8125 45.9141 36.579C40.9748 34.8544 36.5165 32.3858 31.8993 29.9838C29.7964 28.8898 27.5039 28.1946 25.433 27.0469C23.6074 26.0351 21.4643 24.6953 20.0357 23.1568C19.1896 22.2456 20.8177 23.9512 21.0791 24.1357C24.561 26.5935 28.812 27.9017 32.5563 29.9065C36.2315 31.8744 39.6385 34.3132 43.3894 36.141C47.606 38.1958 51.9898 39.8439 56.3737 41.4996C58.7458 42.3956 61.0499 43.5269 63.4454 44.3464C64.8747 44.8353 63.7051 44.5716 63.0075 44.2433C57.2369 41.5278 51.2113 39.3881 45.3473 36.8882C43.1699 35.9599 40.9232 35.2128 38.7521 34.2861C38.5197 34.1869 36.2981 33.146 37.2837 33.977C39.6291 35.9545 42.254 37.0645 44.8707 38.6014C47.94 40.404 50.9179 42.3974 54.0164 44.1403C55.0941 44.7465 56.4063 44.7795 57.533 45.4155C59.1587 46.3333 60.765 48.2072 62.5824 48.6616" stroke="white" stroke-width="5" stroke-linecap="round"/>
</svg>
