<svg width="63" height="41" viewBox="0 0 63 41" fill="none" xmlns="http://www.w3.org/2000/svg">
<path d="M45.078 26.1126C42.1772 26.1126 39.8031 23.4149 37.1174 22.6476C35.8816 22.2945 39.4559 23.7153 40.6211 24.2577C44.6966 26.1549 48.4126 28.6484 51.9952 31.3553C54.5255 33.2671 57.0955 35.2487 59.4535 37.3708C60.7141 38.5054 57.2263 34.8087 56.0271 33.6095C53.0808 30.6632 50.0582 27.7993 47.139 24.8245C45.5758 23.2315 44.316 21.3467 42.8882 19.6334C41.2077 17.6167 39.5769 15.5657 37.813 13.6178C37.5858 13.3669 33.6091 9.32103 33.5107 9.71483C33.096 11.3737 34.501 13.7493 35.2625 15.0863C37.8691 19.6629 41.2735 23.7433 43.8672 28.3411C44.1612 28.8623 45.7788 31.3283 45.619 31.1621C43.3839 28.8376 41.5235 25.99 39.4489 23.5106C36.8337 20.3851 34.3951 16.9621 31.527 14.0558C29.8705 12.3772 28.044 10.8389 26.323 9.22534C25.9287 8.85575 25.3815 8.25925 24.7901 8.25925C24.3685 8.25925 25.7332 9.6986 25.9365 9.98533C27.3402 11.9649 29.4321 13.4809 31.1405 15.1893C31.8665 15.9153 33.188 16.8111 33.6653 17.7656C34.2893 19.0137 31.9888 15.5276 31.0375 14.5066C29.7685 13.1448 28.6183 11.6917 27.2762 10.3975C26.2934 9.44987 25.2237 8.52065 24.2104 7.56366C22.6189 6.06058 21.4475 4.6751 19.4444 3.67353C19.1346 3.51862 17.2466 2.45471 18.1949 3.40303C19.4792 4.68729 20.871 5.82232 22.2783 6.97113C24.262 8.59047 26.3822 10.0389 28.1134 11.9433C28.304 12.1529 29.3249 13.4177 28.3324 13.0253C27.128 12.5491 25.8114 11.4936 24.803 10.6938C23.2668 9.47547 21.3415 8.83069 19.5474 8.07891C17.039 7.02776 14.2494 6.22678 11.5868 5.59283C10.7315 5.38919 9.86557 5.21319 9.02348 5.02606C8.55049 4.92095 7.09554 4.77696 6.82079 4.43352C6.54505 4.08885 5.52043 4.09714 5.0947 3.85387C4.56095 3.54886 4.05333 3.31159 3.47167 3.1454C2.28924 2.80757 3.28148 2.3102 3.57472 2.82337C3.82573 3.26263 4.65754 3.65269 5.08182 3.98268C5.84265 4.57443 6.78452 5.82016 7.74824 5.94063C8.84767 6.07806 9.84169 6.97187 10.9943 7.09994C12.1494 7.22828 13.4483 8.15949 14.4722 8.67145C15.2956 9.08312 17.0817 10.2321 17.4864 11.0416" stroke="white" stroke-width="5" stroke-linecap="round"/>
</svg>
