<svg width="40" height="30" viewBox="0 0 40 30" fill="none" xmlns="http://www.w3.org/2000/svg">
<path d="M26.0304 22.9944C26.6724 22.9944 29.9462 23.3693 29.9462 24.2697C29.9462 24.9016 27.1195 24.6175 26.6229 24.6175C25.4882 24.6175 26.1949 24.7184 26.8419 24.8622C27.5199 25.0129 28.5187 25.1674 29.0961 25.5449C29.6648 25.9168 30.67 26.6657 31.3632 26.7042C32.2986 26.7562 32.2613 25.6176 32.2906 24.7978C32.341 23.3886 32.041 22.9625 31.4147 21.8351C30.7717 20.6777 29.4613 20.0182 28.5808 19.0399C27.0832 17.3759 25.4955 15.8222 23.8405 14.2996C23.4543 13.9443 22.9492 13.1613 22.4494 12.9471C22.2756 12.8726 23.254 14.5688 23.3639 14.7633C24.0146 15.9146 25.1922 16.7678 26.3009 17.4426C28.5136 18.7895 30.7161 20.1097 32.8445 21.5904C34.1394 22.4911 35.3165 23.5001 36.5543 24.4629C36.8574 24.6986 36.415 23.5612 36.3353 23.4453C35.8475 22.7357 35.1612 21.9164 34.8282 21.1395C34.209 19.6946 32.7086 18.0795 31.6079 16.9789C30.7406 16.1116 30.0995 14.7041 28.9286 14.1837C28.0419 13.7896 27.0903 12.7162 26.2622 12.1484C25.4151 11.5676 23.8677 10.5503 22.8358 10.4739C22.6996 10.4638 21.9671 10.0842 22.1402 10.4739C22.3668 10.9836 22.789 11.3972 23.1707 11.7878C25.6191 14.293 27.4844 17.6641 29.4052 20.5727C29.9842 21.4495 30.6411 22.4118 30.8995 23.4453C30.9267 23.5542 31.1636 24.4182 31.1184 24.1022C30.8917 22.5152 30.6676 21.0052 30.6676 19.4006C30.6676 16.3326 27.9505 14.4808 26.0175 12.5477C24.1258 10.6561 20.6698 8.5986 18.044 7.92339C15.2542 7.206 12.6359 5.9852 9.80001 5.37291C8.42839 5.07676 7.10316 4.55989 5.80683 4.03326C5.38519 3.86197 3.80061 3.17245 3.3594 3.56954C3.08057 3.82049 4.51263 4.58083 4.64752 4.6258C5.54686 4.92558 6.20966 5.74767 7.04343 6.22307C9.65583 7.71259 12.0986 9.51996 14.5403 11.2725C15.8342 12.2012 17.1318 13.1993 18.2759 14.3125C18.3317 14.3668 19.1819 15.2523 18.9714 15.2399C18.2654 15.1984 17.275 13.8284 16.7043 13.4366C14.4659 11.8997 11.6656 11.2327 9.10443 10.4739" stroke="white" stroke-width="5" stroke-linecap="round"/>
</svg>
