<svg width="34" height="23" viewBox="0 0 34 23" fill="none" xmlns="http://www.w3.org/2000/svg">
<path d="M29.8289 18.3856C29.5308 18.3856 26.9751 18.372 27.974 18.9008C28.5325 19.1965 29.9484 19.2791 30.5245 19.313C31.9654 19.3978 28.7111 19.285 28.2059 19.313C27.8959 19.3302 27.3837 19.8072 27.0466 19.9571C26.5065 20.1971 25.8956 20.2405 25.3076 20.2405C23.2576 20.2405 21.5811 20.3561 19.7558 19.313C18.4578 18.5713 16.93 17.8783 15.8657 16.8141C14.655 15.6034 13.0319 14.7016 11.7952 13.465C10.8183 12.488 9.68892 11.5944 8.61355 10.7341C7.61284 9.93356 7.09795 8.31597 6.06307 7.48807C5.58721 7.10738 5.33938 5.86202 4.89088 5.28538C4.27361 4.49175 3.50132 4.09226 3.16479 3.08269" stroke="white" stroke-width="5" stroke-linecap="round"/>
</svg>
