<svg width="72" height="50" viewBox="0 0 72 50" fill="none" xmlns="http://www.w3.org/2000/svg">
<path d="M2.94971 3.40436C3.00181 3.03961 3.92697 4.2177 4.00597 4.33181C4.78749 5.46068 5.71861 6.24642 6.6595 7.23008C8.7064 9.37003 10.7905 11.1081 13.3577 12.5629C16.904 14.5725 20.0586 17.0835 24.0491 18.192C24.5775 18.3388 26.9935 19.4588 27.3854 19.1452C27.6372 18.9437 25.358 17.1275 25.1569 16.9296C24.1949 15.9831 23.3169 14.7749 22.1685 14.0571C20.1158 12.7742 17.7686 11.1558 15.4703 10.3602C13.2859 9.60408 16.3574 11.7556 16.8099 12.0348C21.667 15.0317 26.1331 18.2832 31.6748 19.8666C33.3942 20.3578 35.3098 20.9816 36.8531 21.9533C37.212 22.1793 37.5666 22.435 37.9609 22.5974C38.4346 22.7925 36.9681 21.3923 36.7887 21.2577C34.3412 19.4221 32.404 17.1912 29.6396 15.809C29.3908 15.6846 28.857 15.3628 28.6993 15.1263C28.5111 14.8439 29.0551 15.7266 29.3305 15.9249C30.3463 16.6563 31.4961 17.2138 32.628 17.7798C35.4039 19.1677 38.2116 20.4814 40.9751 21.8631C42.196 22.4736 43.7092 23.2711 44.8137 24.0916C46.1021 25.0487 47.688 25.3846 49.2191 25.895C52.1756 26.8805 55.218 27.8621 57.901 29.5017C60.1524 30.8776 62.0067 33.3536 63.9294 35.1695C64.2174 35.4414 66.9381 38.2178 66.1063 38.4026C64.8978 38.6712 64.092 37.5288 62.9504 37.4881C62.3551 37.4668 59.3398 37.0462 59.2922 37.9518C59.1677 40.3166 61.0132 42.0307 63.2467 42.589C64.6627 42.943 65.7411 44.2084 66.8406 45.088C67.5499 45.6555 68.1466 46.6998 69.0304 46.9944" stroke="white" stroke-width="5" stroke-linecap="round"/>
</svg>
