<svg width="448" height="512" viewBox="0 0 448 512" fill="none" xmlns="http://www.w3.org/2000/svg">
<g clip-path="url(#clip0_50_8)">
<path d="M352 111.1C374.09 111.1 392 93.22 392 71.13C392 49.04 352 0 352 0C352 0 312 49.91 312 72C312 94.09 329.9 111.1 352 111.1ZM224 111.1C246.09 111.1 264 93.22 264 71.13C264 49.04 224 0 224 0C224 0 184 49.91 184 72C184 94.09 201.9 111.1 224 111.1ZM383.1 223.1L384 160C384 151.164 376.836 144 368 144H336C327.2 144 320 151.2 320 160V224H256V160C256 151.164 248.836 144 240 144H208C199.2 144 192 151.2 192 160V224H128V160C128 151.164 120.836 144 112 144H80C71.16 144 64 151.2 64 160V223.97C28.65 223.97 0 252.62 0 287.07V355.77C9.814 361.872 21.39 367.1 32 367.1C52.64 367.1 77.05 347.37 84.7 339.77C90.95 333.551 101.04 333.551 107.29 339.77C114.1 348.3 139.4 367.1 160 367.1C180.6 367.1 205.05 347.37 212.7 339.77C218.95 333.551 229.04 333.551 235.29 339.77C242.1 348.3 267.4 367.1 288 367.1C308.6 367.1 333.05 347.37 340.7 339.77C346.95 333.551 357.04 333.551 363.29 339.77C370.1 348.3 395.4 367.1 416 367.1C426.61 367.1 438.19 361.873 448 355.77V287.1C448 252.6 419.3 223.1 383.1 223.1ZM352 373.3C338.25 384.25 313.97 399.96 288 399.96C262.03 399.96 237.75 384.26 224 373.3C210.25 384.25 185.97 399.96 160 399.96C134.03 399.96 109.75 384.26 96 373.3C82.25 384.25 57.97 399.96 32 399.96C20.73 399.96 9.91 396.839 0 392.583V479.963C0 497.7 14.33 512 32 512H416C433.67 512 448 497.67 448 480V392.62C438.09 396.876 427.27 399.997 416 399.997C390 399.1 365.8 384.3 352 373.3ZM96 111.1C118.09 111.1 136 93.22 136 71.13C136 49.04 96 0 96 0C96 0 56 49.91 56 72C56 94.09 73.91 111.1 96 111.1Z" fill="white"/>
</g>
<defs>
<clipPath id="clip0_50_8">
<rect width="448" height="512" fill="white"/>
</clipPath>
</defs>
</svg>
