<svg width="448" height="512" viewBox="0 0 448 512" fill="none" xmlns="http://www.w3.org/2000/svg">
<g clip-path="url(#clip0_50_74)">
<path d="M240 97.25C232.3 104.8 219.3 131.8 216.6 176H263.48C260.8 131.8 247.8 104.8 240 97.25ZM334.4 176C329.15 144.75 308.78 118.87 281.15 105.62C288.8 124.6 293.8 149 295.3 176H334.4ZM334.4 208H295.27C293.77 235 288.77 259.38 281.15 278.38C308.8 265.1 329.1 239.3 334.4 208ZM263.4 208H216.5C219.3 252.3 232.3 279.3 240 286.8C247.8 279.3 260.8 252.3 263.4 208ZM198.9 105.6C171.3 118.9 150.9 144.8 145.6 176H184.73C186.3 149 191.3 124.6 198.9 105.6ZM448 336V48C448 21.49 426.5 0 400 0H96C42.98 0 0 42.98 0 96V416C0 469.02 42.98 512 96 512H416C433.67 512 448 497.67 448 480C448 468.28 441.393 458.48 432 452.9V371.54C441.8 362.8 448 350.2 448 336ZM240 64C310.75 64 368 121.25 368 192C368 262.75 310.75 320 240 320C169.25 320 112 262.75 112 192C112 121.25 169.3 64 240 64ZM384 448H96C78.33 448 64 433.67 64 416C64 398.33 78.33 384 96 384H384V448ZM198.9 278.4C191.3 259.4 186.3 235 184.8 208H145.6C150.9 239.3 171.3 265.1 198.9 278.4Z" fill="white"/>
</g>
<defs>
<clipPath id="clip0_50_74">
<rect width="448" height="512" fill="white"/>
</clipPath>
</defs>
</svg>
