<svg width="512" height="512" viewBox="0 0 512 512" fill="none" xmlns="http://www.w3.org/2000/svg">
<g clip-path="url(#clip0_50_40)">
<path d="M502.7 39.0199L473 9.36993C460.5 -3.13007 440.26 -3.12007 427.76 9.38053L381.52 55.7505C377.645 59.6255 374.672 64.2565 372.922 69.5105L360.732 106.021L284.5 182.3C272.4 173.5 259 166.5 244.4 163.1C211 155.4 177.4 162.3 154.5 185.1C145.3 194.5 138.3 206 134.3 218.6C128.3 237.1 111.1 251.3 92.14 253C68.52 255.4 46.39 264.5 29.52 281.5C-16.1 327 -7.86003 409 47.64 464.5C103.01 519.88 185.04 528.01 230.54 482.5C246.64 465.62 256.79 443.65 259.04 419.78C260.79 401.03 274.88 383.62 293.51 377.62C306.01 373.745 317.54 366.75 326.91 357.37C349.78 334.49 356.66 300.99 348.01 267.61C344.635 252.98 337.62 239.62 328.87 227.5L405.12 151.24L441.65 139.07C446.775 137.32 451.544 134.355 455.42 130.48L501.78 84.1899C515.2 71.7199 515.2 51.5199 502.7 39.0199ZM208 352C181.5 352 160 330.5 160 304C160 277.5 181.5 256 208 256C234.5 256 255.1 277.5 255.1 304C256 330.5 234.5 352 208 352Z" fill="white"/>
</g>
<defs>
<clipPath id="clip0_50_40">
<rect width="512" height="512" fill="white"/>
</clipPath>
</defs>
</svg>
