<svg width="27" height="26" viewBox="0 0 27 26" fill="none" xmlns="http://www.w3.org/2000/svg">
<path d="M18.2643 12.5748C16.5056 12.5748 14.8348 12.6228 13.2664 11.6989C12.115 11.0207 11.0687 10.3859 9.82707 9.90842C9.72651 9.86974 9.436 9.68964 9.68538 9.84401C11.2456 10.8099 12.5782 12.4561 13.8847 13.7084C16.0662 15.7995 18.2209 17.9162 20.3897 20.0202C20.4734 20.1014 22.9548 22.512 22.7985 22.5707C22.1511 22.8134 19.4148 20.3777 18.9856 20.0717C16.0489 17.9779 13.1874 15.7865 10.4067 13.4894C7.90527 11.423 5.4862 9.3031 3.19324 7.01014C2.80988 6.62678 2.33217 6.25038 2.0597 5.77355C1.5716 4.91938 3.41245 7.20957 4.17222 7.83454C6.30784 9.59127 8.54895 11.1919 10.6128 13.0386C11.1281 13.4996 10.4398 11.4988 10.381 11.3125C9.46163 8.40125 8.41595 5.1736 8.08811 2.14104C8.02317 1.54041 8.07855 1.50755 8.34573 2.01223C9.1698 3.56879 10.3769 4.81984 11.6691 6.00541C15.95 9.93304 20.5395 13.5434 24.4601 17.8561C29.3747 23.2621 13.1853 8.55865 7.41828 4.07322C6.87369 3.64965 7.62473 4.80823 7.65015 4.8461C9.18823 7.13752 10.4981 9.57108 12.0555 11.8535C13.6034 14.122 15.21 16.3507 16.7056 18.6548C16.7698 18.7535 17.7849 20.6583 17.53 20.5097C16.6034 19.9691 15.7341 18.764 14.9667 18.0365C12.7553 15.94 10.5738 13.8137 8.30709 11.7762C7.20528 10.7858 6.05808 9.86194 4.91933 8.91656C3.91692 8.08437 5.17234 9.42321 5.38305 9.7152C7.30727 12.3816 9.03097 15.1895 10.9349 17.869C11.4072 18.5338 13.0495 20.775 11.3599 19.1185C9.14813 16.9501 6.68452 15.0576 4.4556 12.9097C2.91723 11.4273 4.66042 13.7714 5.0739 14.2107C8.04248 17.3649 11.4604 20.1732 14.8121 22.9056C16.398 24.1984 15.8773 23.5367 14.7992 22.6608C14.3909 22.3291 14.0301 21.3935 14.8894 21.8622C15.2676 22.0685 15.7982 22.5333 16.126 22.8283C16.5965 23.2518 16.3471 22.294 16.1646 22.0812C15.7058 21.5459 15.2833 20.9551 14.7863 20.4581C14.4044 20.0762 13.5965 19.4479 13.4081 18.9768C13.126 18.2717 14.4204 20.111 14.9667 20.6385C15.83 21.4721 16.81 22.0924 17.7877 22.7768C18.2755 23.1182 19.1643 23.4175 19.4236 23.9361" stroke="white" stroke-width="3" stroke-linecap="round"/>
</svg>
