<svg width="448" height="512" viewBox="0 0 448 512" fill="none" xmlns="http://www.w3.org/2000/svg">
<g clip-path="url(#clip0_50_100)">
<path d="M53.21 467C54.772 491.84 76.23 512 101.11 512H346.91C371.79 512 393.24 491.84 394.81 467L416 128H32L53.21 467ZM432 32H320L308.42 8.84C305.711 3.42 300.17 -0.0039978 294.11 -0.0039978H153.9C147.839 -0.0039978 142.3 3.42 139.59 8.84L128 32H16C7.164 32 0 39.162 0 48V80C0 88.836 7.164 96 16 96H432C440.838 96 448 88.836 448 80V48C448 39.16 440.8 32 432 32Z" fill="white"/>
</g>
<defs>
<clipPath id="clip0_50_100">
<rect width="448" height="512" fill="white"/>
</clipPath>
</defs>
</svg>
