<svg width="448" height="512" viewBox="0 0 448 512" fill="none" xmlns="http://www.w3.org/2000/svg">
<path d="M394.1 212.8C374.06 240.47 366.03 272.95 362.92 306.75C359.172 348.09 354.135 389.21 345.03 429.55L338.28 459.19C335.6 471.33 324.99 479.97 312.89 479.97C300.89 479.97 290.5 471.659 287.6 459.74L258.03 338.54C254.1 322.6 240.1 311.4 224 311.4C207.82 311.4 193.79 322.66 189.93 338.63L160.36 459.83C157.467 471.75 146.97 480.06 135.07 480.06C122.86 480.06 112.36 471.421 109.57 459.28L102.927 429.64C93.8222 389.28 88.7872 348.16 85.8272 306.84C81.9302 272.1 73.9002 240.5 53.8602 212.8C35.1102 186.88 26.7502 152.65 35.4302 116.23C44.8582 76.64 75.8202 44.48 114.28 34.2C134.42 28.95 153.82 33.7625 171.6 43.277L257.74 99.817C264.383 104.192 272.85 101.677 276.7 95.553C280.77 89.099 278.95 80.463 272.52 76.193L248.31 60.333C251.31 58.802 254.525 57.598 257.31 55.52C279.7 38.68 306.06 26.87 333.7 34.19C372.16 44.47 403.13 76.62 412.55 116.22C421.2 152.7 412.9 187 394.1 212.8Z" fill="white"/>
</svg>
