<svg width="448" height="512" viewBox="0 0 448 512" fill="none" xmlns="http://www.w3.org/2000/svg">
<path d="M0 96V416C0 451.35 28.65 480 64 480H384C419.35 480 448 451.35 448 416V96C448 60.65 419.35 32 384 32H64C28.65 32 0 60.65 0 96ZM105.5 303.6L159.74 280.35C166.131 277.584 173.64 279.444 177.98 284.834L200 311.744C234.63 294.744 262.77 266.604 279.77 231.994L252.86 209.944C247.485 205.553 245.649 198.114 248.368 191.724L271.638 137.444C274.685 130.491 282.228 126.674 289.568 128.382L339.948 140.012C347.073 141.637 352.058 147.903 352.058 155.232C352.058 281.332 249.458 384.032 123.358 384.032C116.022 384.032 109.758 379.048 108.118 371.922L96.498 321.532C94.71 314.2 98.5 306.6 105.5 303.6Z" fill="white"/>
</svg>
