<svg width="576" height="512" viewBox="0 0 576 512" fill="none" xmlns="http://www.w3.org/2000/svg">
<path d="M319.1 32C319.1 21 322.225 10.75 327.1 1.62C325.4 0.8721 322.9 0 319.1 0H192C174.4 0 159.1 14.38 159.1 32L159.104 64H319.104L319.1 32ZM246.6 310.1L319.96 255.1L319.962 96H159.963L159.958 271.1L73.3183 335.71C33.9383 365.21 19.4583 420.11 44.0783 462.71C62.3283 494.33 95.1783 511.07 128.048 511.07C148.048 511.07 168.308 504.845 185.558 491.85L207.428 475.47C177.6 421 193.9 350.6 246.6 310.1ZM351.1 271.1L264.97 335.71C225.6 365.21 211.11 420.11 235.74 462.71C254.9 495.3 287.2 512 320.1 512C340.1 512 360.35 505.75 377.6 492.75L492.8 406.37C525 382.3 544 344.2 544 303.1V96H352L351.1 271.1ZM512 0H384C366.38 0 352 14.38 352 32L352 64H544V32C544 14.38 529.6 0 512 0Z" fill="white"/>
</svg>
