<svg width="512" height="512" viewBox="0 0 512 512" fill="none" xmlns="http://www.w3.org/2000/svg">
<g clip-path="url(#clip0_50_46)">
<path d="M336 0C238.8 0 160 78.8 160 176C160 190.71 162.004 204.93 165.406 218.59L9.406 374.59C3.371 380.6 0 388.8 0 397.3V496C0 504.8 7.164 512 16 512H112C120.836 512 128 504.836 128 496V448H176C184.836 448 192 440.836 192 432V384H249.37C253.612 384 257.682 382.312 260.68 379.312L293.4 346.592C307.1 349.1 321.3 351.1 336 351.1C433.2 351.1 512 272.3 512 175.1C512 77.9 433.2 0 336 0ZM376 176C353.91 176 336 158.09 336 136C336 113.91 353.9 96 376 96C398.1 96 416 113.9 416 136C416 158.1 398.1 176 376 176Z" fill="white"/>
</g>
<defs>
<clipPath id="clip0_50_46">
<rect width="512" height="512" fill="white"/>
</clipPath>
</defs>
</svg>
