<svg width="512" height="512" viewBox="0 0 512 512" fill="none" xmlns="http://www.w3.org/2000/svg">
<g clip-path="url(#clip0_50_16)">
<path d="M511 377.3L484.47 218.7C481.901 203.33 468.48 192.07 452.91 192.07L208.1 192.1V128.1H288.1C305.7 128.1 320.11 113.7 320.11 96.1V32C320.11 14.4 305.71 0 288.11 0H64.11C46.51 0 32.11 14.4 32.11 32V95.96C32.11 113.56 46.51 127.96 64.11 127.96L144.1 128V192H59.24C43.59 192 30.21 203.31 27.63 218.75C27.63 218.75 0.30001 384.85 0.0100098 389.25V480C0.0100098 497.67 14.34 512 31.11 512H479.1C496.77 512 510.2 497.67 510.2 480L510.195 389.25C511.7 385.1 511.3 380.6 511 377.3ZM280.1 248C280.1 239.25 287.349 232 295.2 232H310.3C319.05 232 325.4 239.25 325.4 248V264C325.4 272.75 318.151 280 310.3 280H295.2C286.45 280 280.1 272.75 280.1 264V248ZM248.1 312H263.2C271.95 312 278.3 319.25 278.3 328V344C278.3 352.75 271.051 360 263.2 360H248.1C239.35 360 233 352.75 233 344V328C232.1 319.2 239.4 312 248.1 312ZM216.1 232C224.85 232 231.2 239.25 231.2 248V264C231.2 272.75 223.951 280 216.1 280H201C192.25 280 185.9 272.75 185.9 264V248C185.9 239.25 193.149 232 201 232H216.1ZM80.12 80V48H271.22V80H80.12ZM120.1 280H105C96.25 280 89.9 272.75 89.9 264V248C89.9 239.25 97.149 232 105 232H120.1C128.85 232 135.2 239.25 135.2 248V264C136.1 272.8 128.9 280 120.1 280ZM136.1 344V328C136.1 319.25 143.349 312 151.2 312H166.3C175.05 312 181.4 319.25 181.4 328V344C181.4 352.75 174.151 360 166.3 360H151.2C143.4 360 136.1 352.8 136.1 344ZM352.1 448C352.1 456.8 344.9 464 337 464H176.1C167.3 464 161 456.8 161 448C161 439.2 168.2 432 176.1 432H335.2C344.9 432 352.1 439.2 352.1 448ZM376.1 344C376.1 352.75 368.851 360 361 360H345.9C337.15 360 330.8 352.75 330.8 344V328C330.8 319.25 338.049 312 345.9 312H361C369.75 312 376.1 319.25 376.1 328V344ZM424.1 264C424.1 272.75 416.851 280 409 280H393.9C385.15 280 378.8 272.75 378.8 264V248C378.8 239.25 386.049 232 393.9 232H409C417.75 232 424.1 239.25 424.1 248V264Z" fill="white"/>
</g>
<defs>
<clipPath id="clip0_50_16">
<rect width="512" height="512" fill="white"/>
</clipPath>
</defs>
</svg>
